<svg width="94" height="94" viewBox="0 0 94 94" fill="none" xmlns="http://www.w3.org/2000/svg">
<path d="M94 47C94 72.9574 72.9574 94 47 94C21.0426 94 0 72.9574 0 47C0 21.0426 21.0426 0 47 0C72.9574 0 94 21.0426 94 47Z" fill="#F1BE3F"/>
<path d="M90 46.5C90 71.629 69.8528 92 45 92C20.1472 92 0 71.629 0 46.5C0 21.371 20.1472 1 45 1C69.8528 1 90 21.371 90 46.5Z" fill="#C88003"/>
<path d="M40.3733 43.3878C39.4742 44.905 25.4496 45.1599 17.7985 40.8565C10.1474 36.5531 13.8646 23.395 21.6251 19.9399C29.3856 16.4847 41.2723 41.8708 40.3733 43.3878Z" fill="#F1BE3F"/>
<path d="M40.267 48.6546C41.1661 50.1717 34.3806 62.1313 26.7294 66.4347C19.0783 70.7382 9.23999 61.023 10.0488 52.7482C10.8575 44.4732 39.3679 47.1374 40.267 48.6546Z" fill="#F1BE3F"/>
<path d="M44.8966 51.3762C46.695 51.3762 53.9336 63.0811 53.9336 71.6879C53.9336 80.2946 40.3781 83.7376 33.4265 78.9177C26.4747 74.098 43.0985 51.376 44.8966 51.3762Z" fill="#F1BE3F"/>
<path d="M49.6302 48.8342C50.5293 47.3168 64.554 47.062 72.2049 51.3655C79.856 55.6689 76.139 68.8269 68.3785 72.282C60.6177 75.7371 48.7311 50.3511 49.6302 48.8342Z" fill="#F1BE3F"/>
<path d="M49.7366 43.5665C48.8375 42.0493 55.623 30.0897 63.2741 25.7862C70.9254 21.4828 80.7636 31.1981 79.955 39.4729C79.1461 47.7479 50.6356 45.0837 49.7366 43.5665Z" fill="#F1BE3F"/>
<path d="M45.1084 40.8445C43.3101 40.8445 36.0714 29.1397 36.0714 20.5329C36.0714 11.926 49.6269 8.48314 56.5786 13.303C63.5304 18.1228 46.9065 40.8447 45.1084 40.8445Z" fill="#F1BE3F"/>
</svg>
